<svg width="105" height="105" viewBox="0 0 105 105" fill="none" xmlns="http://www.w3.org/2000/svg">
<g clip-path="url(#clip0_52_6334)">
<path d="M52.4999 8.68945C28.5172 8.68945 9.05298 28.1537 9.05298 52.1364C9.05298 76.1191 28.5172 95.5834 52.4999 95.5834C76.4827 95.5834 95.9469 76.1191 95.9469 52.1364C95.9469 28.1537 76.4827 8.68945 52.4999 8.68945ZM52.4999 21.7235C59.7121 21.7235 65.534 27.5454 65.534 34.7576C65.534 41.9698 59.7121 47.7917 52.4999 47.7917C45.2878 47.7917 39.4659 41.9698 39.4659 34.7576C39.4659 27.5454 45.2878 21.7235 52.4999 21.7235ZM52.4999 83.4182C41.6382 83.4182 32.0364 77.857 26.4318 69.4283C26.5621 60.7824 43.8106 56.0466 52.4999 56.0466C61.1459 56.0466 78.4378 60.7824 78.5681 69.4283C72.9635 77.857 63.3617 83.4182 52.4999 83.4182Z" fill="#F08809"/>
</g>
<defs>
<clipPath id="clip0_52_6334">
<rect width="104.273" height="104.273" fill="white" transform="translate(0.363525)"/>
</clipPath>
</defs>
</svg>
