<svg width="122" height="33" viewBox="0 0 122 33" fill="none" xmlns="http://www.w3.org/2000/svg">
<path d="M17.1093 0.00656128C26.0898 0.00656128 33.37 7.28674 33.37 16.2673C33.37 25.2479 26.0898 32.528 17.1093 32.528C8.12869 32.528 0.848511 25.2479 0.848511 16.2673C0.848534 7.28675 8.1287 0.00658499 17.1093 0.00656128ZM22.3846 10.3044L21.3983 13.1638L23.8485 12.6775L21.5145 19.2527L20.2889 18.907L16.1659 18.5612L18.1122 16.9743C18.872 16.3577 19.426 15.7653 19.7743 15.198C20.1337 14.6214 20.3405 14.0075 20.3925 13.3552C20.4736 12.3357 20.1976 11.5274 19.5653 10.9333C18.9435 10.3404 17.9931 9.99401 16.7157 9.8923C15.9887 9.83447 15.2737 9.88517 14.5712 10.0446C13.8686 10.2042 13.2585 10.448 12.7411 10.7761L13.4657 12.8952C13.9279 12.6038 14.3781 12.4044 14.8153 12.2956C15.2638 12.1774 15.6966 12.1346 16.1122 12.1677C16.6102 12.2075 16.9813 12.3344 17.2255 12.5486C17.4801 12.7638 17.5922 13.0655 17.5614 13.4529C17.5362 13.7687 17.4233 14.0724 17.2225 14.364C17.0216 14.6558 16.7021 14.9904 16.2645 15.3659L13.8348 17.4831C13.8082 17.3861 13.7778 17.2876 13.7411 17.1892C13.4952 16.5298 13.1053 16.0507 12.5712 15.7527C12.1385 15.5054 11.6569 15.4046 11.1268 15.447C11.4572 15.1536 11.6865 14.8061 11.8124 14.4011C11.9851 13.8712 11.9669 13.3222 11.7557 12.7556C11.4406 11.9103 10.8828 11.3665 10.0839 11.1247C9.28141 10.8738 8.33132 10.9525 7.23523 11.3611C6.57583 11.6069 5.97571 11.9414 5.43542 12.365C4.89171 12.7792 4.47534 13.2367 4.18542 13.7361L5.66101 15.3132C6.17434 14.4765 6.87769 13.8918 7.76941 13.5593C8.19654 13.4001 8.55113 13.3576 8.83289 13.4323C9.11473 13.5072 9.31333 13.698 9.42761 14.0046C9.54518 14.3202 9.5206 14.6099 9.35437 14.8728C9.18443 15.1265 8.89923 15.3274 8.49988 15.4763L7.02332 16.028L7.77136 18.0339L9.4989 17.3894C9.94454 17.2233 10.309 17.179 10.5907 17.2536C10.8814 17.3251 11.0877 17.5226 11.2089 17.8474C11.337 18.1911 11.3089 18.4983 11.1239 18.7683C10.9354 19.0289 10.5902 19.2532 10.0887 19.4402C9.60579 19.6202 9.11042 19.7252 8.60339 19.7556C8.09634 19.7859 7.58425 19.7329 7.06824 19.5974L6.995 21.7839C7.50623 21.9634 8.11852 22.0308 8.83191 21.987C9.55147 21.9304 10.2602 21.7722 10.9569 21.5124C11.6396 21.2579 12.2079 20.951 12.663 20.5925L18.6522 21.2146L25.8749 23.5886L26.8114 20.9538L24.3622 20.114L27.7079 10.4685L25.3309 9.68723L22.3846 10.3044Z" fill="white"/>
<path d="M117.119 24.7511C114.862 24.7511 113.104 24.1828 111.845 23.0463C110.602 21.9098 109.981 20.3491 109.981 18.3642C109.981 17.1316 110.243 16.0351 110.766 15.0747C111.289 14.1142 112.025 13.3699 112.974 12.8416C113.922 12.2974 115.034 12.0253 116.309 12.0253C117.568 12.0253 118.615 12.2974 119.449 12.8416C120.299 13.3699 120.937 14.1062 121.362 15.0507C121.787 15.9791 122 17.0596 122 18.2921V19.2046H113.636V17.1876H118.787L118.37 17.5238C118.37 16.6114 118.19 15.9391 117.83 15.5069C117.487 15.0587 116.996 14.8346 116.358 14.8346C115.623 14.8346 115.058 15.1067 114.666 15.6509C114.29 16.1792 114.102 16.9795 114.102 18.052V18.4842C114.102 19.5567 114.372 20.3411 114.911 20.8373C115.451 21.3335 116.228 21.5816 117.241 21.5816C117.896 21.5816 118.509 21.5096 119.081 21.3655C119.67 21.2215 120.226 20.9894 120.749 20.6692L121.877 23.4545C121.256 23.8707 120.536 24.1908 119.719 24.4149C118.901 24.639 118.035 24.7511 117.119 24.7511Z" fill="white"/>
<path d="M103.076 24.7511C101.955 24.7511 100.938 24.639 100.022 24.4149C99.1231 24.1748 98.3577 23.8547 97.7266 23.4545L98.7443 20.6692C99.3597 21.0214 100.046 21.3095 100.804 21.5336C101.577 21.7577 102.342 21.8698 103.099 21.8698C103.699 21.8698 104.133 21.7817 104.401 21.6057C104.685 21.4136 104.827 21.1655 104.827 20.8613C104.827 20.6212 104.741 20.4291 104.567 20.2851C104.393 20.141 104.133 20.0369 103.786 19.9729L101.23 19.5167C100.22 19.3246 99.4307 18.9484 98.8627 18.3882C98.3104 17.8119 98.0343 17.0676 98.0343 16.1552C98.0343 15.3228 98.2552 14.6025 98.697 13.9942C99.1388 13.3699 99.77 12.8897 100.591 12.5535C101.411 12.2013 102.382 12.0253 103.502 12.0253C104.417 12.0253 105.285 12.1293 106.105 12.3374C106.942 12.5455 107.668 12.8737 108.283 13.3219L107.194 16.0351C106.705 15.699 106.129 15.4268 105.466 15.2187C104.819 14.9946 104.212 14.8826 103.644 14.8826C102.965 14.8826 102.484 14.9866 102.2 15.1947C101.916 15.3868 101.774 15.6269 101.774 15.9151C101.774 16.1392 101.853 16.3312 102.011 16.4913C102.168 16.6354 102.421 16.7394 102.768 16.8035L105.324 17.2597C106.366 17.4357 107.163 17.8039 107.715 18.3642C108.283 18.9084 108.567 19.6528 108.567 20.5972C108.567 21.4776 108.33 22.2299 107.857 22.8542C107.399 23.4625 106.76 23.9347 105.94 24.2709C105.119 24.591 104.165 24.7511 103.076 24.7511Z" fill="white"/>
<path d="M91.4314 24.7511C89.1748 24.7511 87.417 24.1828 86.1578 23.0463C84.9151 21.9098 84.2937 20.3491 84.2937 18.3642C84.2937 17.1316 84.5553 16.0351 85.0786 15.0747C85.6019 14.1142 86.3377 13.3699 87.2861 12.8416C88.2346 12.2974 89.3465 12.0253 90.622 12.0253C91.8811 12.0253 92.9276 12.2974 93.7616 12.8416C94.6119 13.3699 95.2497 14.1062 95.6748 15.0507C96.1 15.9791 96.3125 17.0596 96.3125 18.2921V19.2046H87.9484V17.1876H93.0993L92.6824 17.5238C92.6824 16.6114 92.5025 15.9391 92.1427 15.5069C91.7993 15.0587 91.3088 14.8346 90.671 14.8346C89.9352 14.8346 89.371 15.1067 88.9786 15.6509C88.6025 16.1792 88.4144 16.9795 88.4144 18.052V18.4842C88.4144 19.5567 88.6843 20.3411 89.2239 20.8373C89.7635 21.3335 90.5402 21.5816 91.5541 21.5816C92.2082 21.5816 92.8214 21.5096 93.3937 21.3655C93.9824 21.2215 94.5383 20.9894 95.0616 20.6692L96.1899 23.4545C95.5685 23.8707 94.849 24.1908 94.0314 24.4149C93.2138 24.639 92.3471 24.7511 91.4314 24.7511Z" fill="white"/>
<path d="M77.9986 24.7511C75.742 24.7511 73.9841 24.1828 72.725 23.0463C71.4822 21.9098 70.8608 20.3491 70.8608 18.3642C70.8608 17.1316 71.1225 16.0351 71.6457 15.0747C72.169 14.1142 72.9049 13.3699 73.8533 12.8416C74.8017 12.2974 75.9137 12.0253 77.1891 12.0253C78.4482 12.0253 79.4948 12.2974 80.3287 12.8416C81.1791 13.3699 81.8168 14.1062 82.2419 15.0507C82.6671 15.9791 82.8797 17.0596 82.8797 18.2921V19.2046H74.5155V17.1876H79.6665L79.2495 17.5238C79.2495 16.6114 79.0696 15.9391 78.7099 15.5069C78.3665 15.0587 77.8759 14.8346 77.2382 14.8346C76.5023 14.8346 75.9382 15.1067 75.5457 15.6509C75.1696 16.1792 74.9816 16.9795 74.9816 18.052V18.4842C74.9816 19.5567 75.2514 20.3411 75.791 20.8373C76.3306 21.3335 77.1074 21.5816 78.1212 21.5816C78.7753 21.5816 79.3885 21.5096 79.9608 21.3655C80.5495 21.2215 81.1055 20.9894 81.6287 20.6692L82.757 23.4545C82.1357 23.8707 81.4162 24.1908 80.5986 24.4149C79.7809 24.639 78.9143 24.7511 77.9986 24.7511Z" fill="white"/>
<path d="M56.2498 24.5156V6.84088H60.6397V14.4535H60.2697C60.6808 13.669 61.2645 13.0767 62.0208 12.6764C62.7771 12.2602 63.6403 12.0521 64.6103 12.0521C66.0736 12.0521 67.167 12.4763 67.8904 13.3248C68.6139 14.1733 68.9756 15.4621 68.9756 17.1912V24.5156H64.5857V17.3833C64.5857 16.6469 64.4459 16.1185 64.1664 15.7983C63.9033 15.4781 63.5005 15.318 62.9579 15.318C62.251 15.318 61.6837 15.5342 61.2562 15.9664C60.8452 16.3987 60.6397 16.967 60.6397 17.6715V24.5156H56.2498Z" fill="white"/>
<path d="M48.4053 24.7513C46.5301 24.7513 44.9076 24.3914 43.5379 23.6718C42.1845 22.9522 41.1327 21.9367 40.3827 20.6254C39.6489 19.314 39.282 17.7788 39.282 16.0197C39.282 14.2606 39.6489 12.7334 40.3827 11.4381C41.1327 10.1267 42.1845 9.11125 43.5379 8.39161C44.9076 7.67198 46.5301 7.31216 48.4053 7.31216C49.5957 7.31216 50.68 7.47208 51.6584 7.79192C52.6368 8.09576 53.4602 8.53554 54.1288 9.11125L52.7835 12.5895C52.0334 12.0617 51.3404 11.6939 50.7045 11.486C50.0848 11.2621 49.3755 11.1502 48.5765 11.1502C47.109 11.1502 45.9757 11.574 45.1767 12.4216C44.394 13.2531 44.0026 14.4525 44.0026 16.0197C44.0026 17.6029 44.394 18.8183 45.1767 19.6659C45.9757 20.4974 47.109 20.9132 48.5765 20.9132C49.3755 20.9132 50.0848 20.8093 50.7045 20.6014C51.3404 20.3775 52.0334 20.0017 52.7835 19.474L54.1288 22.9522C53.4602 23.5279 52.6368 23.9757 51.6584 24.2955C50.68 24.5993 49.5957 24.7513 48.4053 24.7513Z" fill="white"/>
</svg>
